<?xml version="1.0" encoding="UTF-8" standalone="no"?>
<!DOCTYPE svg PUBLIC "-//W3C//DTD SVG 1.1//EN" "http://www.w3.org/Graphics/SVG/1.1/DTD/svg11.dtd">
<svg width="100%" height="100%" viewBox="0 0 932 111" version="1.1" xmlns="http://www.w3.org/2000/svg" xmlns:xlink="http://www.w3.org/1999/xlink" xml:space="preserve" xmlns:serif="http://www.serif.com/" style="fill-rule:evenodd;clip-rule:evenodd;stroke-linejoin:round;stroke-miterlimit:2;">
    <g transform="matrix(1,0,0,1,-33.8857,-179.953)">
        <g transform="matrix(3.54992,0,0,3.54992,-598.289,-354.022)">
            <clipPath id="_clip1">
                <path d="M203.081,156.669L184.331,156.669L184.331,175.419L203.081,175.419L203.081,181.669L178.081,181.669L178.081,150.419L203.081,150.419L203.081,156.669ZM227.831,162.919L227.831,156.669L215.581,156.669L215.581,162.919L227.831,162.919ZM234.331,181.669L228.081,181.669L228.081,169.169L215.581,169.169L215.581,181.669L209.331,181.669L209.331,150.419L234.331,150.419L234.331,162.919L228.081,162.919L228.081,169.169L234.331,169.169L234.331,181.669ZM259.331,150.419L265.581,150.419L265.581,181.669L240.581,181.669L240.581,175.419L259.331,175.419L259.331,169.169L240.581,169.169L240.581,150.419L246.831,150.419L246.831,162.919L259.331,162.919L259.331,150.419ZM271.831,150.419L296.831,150.419L296.831,169.169L278.081,169.169L278.081,181.669L271.831,181.669L271.831,150.419ZM290.581,162.919L290.581,156.669L278.081,156.669L278.081,162.919L290.581,162.919ZM321.831,150.419L321.831,156.669L315.581,156.669L315.581,181.669L309.331,181.669L309.331,156.669L303.081,156.669L303.081,150.419L321.831,150.419ZM353.081,150.419L353.081,181.669L328.081,181.669L328.081,150.419L353.081,150.419ZM346.831,175.419L346.831,156.669L334.331,156.669L334.331,175.419L346.831,175.419ZM359.331,150.419L384.331,150.419L384.331,181.669L378.081,181.669L378.081,156.669L365.581,156.669L365.581,181.669L359.331,181.669L359.331,150.419ZM415.581,156.669L396.831,156.669L396.831,162.919L409.331,162.919L409.331,169.169L396.831,169.169L396.831,175.419L415.581,175.419L415.581,181.669L390.581,181.669L390.581,150.419L415.581,150.419L415.581,156.669ZM440.581,150.419L440.581,156.669L434.331,156.669L434.331,181.669L428.081,181.669L428.081,156.669L421.831,156.669L421.831,150.419L440.581,150.419Z" clip-rule="nonzero"/>
            </clipPath>
            <g clip-path="url(#_clip1)">
                <text x="178.031px" y="181.669px" style="font-family:'Hooge0555', 'hooge 05_55';font-size:50px;">Crypto</text>
                <text x="359.281px" y="181.669px" style="font-family:'Hooge0555', 'hooge 05_55';font-size:50px;fill:rgb(255,7,0);">Net</text>
                <g id="Touch-ID-Icon" serif:id="Touch ID Icon" transform="matrix(-0.461993,1.37151,-1.37151,-0.461993,4077.97,-6716.5)">
                    <path d="M5350.88,1038.29C5350.57,1038.29 5350.25,1038.2 5349.98,1038.01C5349.25,1037.51 5349.06,1036.52 5349.56,1035.79C5356.93,1025.02 5361.6,1012.52 5363.06,999.638C5363.16,998.759 5363.96,998.126 5364.84,998.227C5365.72,998.327 5366.35,999.122 5366.25,1000C5364.72,1013.4 5359.86,1026.4 5352.2,1037.6C5351.9,1038.05 5351.39,1038.29 5350.88,1038.29ZM5341.97,1037.91C5341.62,1037.91 5341.28,1037.8 5340.98,1037.58C5340.28,1037.03 5340.16,1036.02 5340.71,1035.33C5353.8,1018.57 5358.9,997.015 5354.7,976.196L5354.6,975.661C5354.21,974.353 5353.38,973.232 5352.23,972.467C5350.92,971.601 5349.36,971.295 5347.83,971.604C5344.93,972.189 5342.96,974.836 5343.14,977.712L5343.3,978.494C5344.97,986.772 5344.92,995.122 5343.17,1003.31C5342.98,1004.18 5342.13,1004.73 5341.26,1004.55C5340.4,1004.36 5339.85,1003.51 5340.03,1002.64C5341.58,995.392 5341.72,988.01 5340.44,980.674L5340.41,980.68L5340.1,979.137C5339.11,974.238 5342.3,969.448 5347.19,968.461C5349.57,967.982 5351.98,968.456 5354,969.796C5356.02,971.136 5357.39,973.181 5357.87,975.554L5358.15,976.953L5358.12,976.965C5362,998.265 5356.61,1020.18 5343.23,1037.3C5342.92,1037.7 5342.44,1037.91 5341.97,1037.91ZM5360.35,1037.22C5360.07,1037.22 5359.79,1037.15 5359.54,1037C5358.77,1036.55 5358.52,1035.57 5358.96,1034.8C5369.86,1016.23 5373.51,994.377 5369.26,973.261L5369.11,972.566C5367.78,966.926 5364.14,962.106 5359.05,959.269C5358.28,958.838 5358,957.861 5358.43,957.088C5358.86,956.315 5359.84,956.037 5360.61,956.469C5366.73,959.878 5371.03,965.766 5372.41,972.623L5372.68,973.985L5372.66,973.992C5376.65,995.457 5372.79,1017.57 5361.73,1036.43C5361.43,1036.93 5360.9,1037.22 5360.35,1037.22ZM5333.66,1036.32C5333.28,1036.32 5332.9,1036.18 5332.6,1035.92C5331.93,1035.33 5331.87,1034.32 5332.45,1033.65C5338.95,1026.26 5343.76,1017.36 5346.38,1007.9C5349.12,997.99 5349.48,987.816 5347.43,977.662C5347.25,976.794 5347.81,975.948 5348.68,975.773C5349.55,975.598 5350.4,976.16 5350.57,977.028C5352.72,987.68 5352.35,998.356 5349.47,1008.76C5346.73,1018.68 5341.67,1028.02 5334.86,1035.77C5334.55,1036.13 5334.1,1036.32 5333.66,1036.32ZM5370.28,1034.37C5370.05,1034.37 5369.81,1034.32 5369.58,1034.21C5368.79,1033.82 5368.46,1032.86 5368.84,1032.07C5371.5,1026.61 5373.64,1020.88 5375.21,1015.04C5375.44,1014.19 5376.31,1013.68 5377.17,1013.91C5378.03,1014.13 5378.53,1015.01 5378.3,1015.87C5376.69,1021.91 5374.48,1027.83 5371.73,1033.47C5371.45,1034.04 5370.88,1034.37 5370.28,1034.37ZM5325.98,1033.69C5325.58,1033.69 5325.17,1033.54 5324.86,1033.23C5324.23,1032.61 5324.22,1031.6 5324.83,1030.96C5330.3,1025.36 5334.52,1018.82 5337.37,1011.52C5337.69,1010.7 5338.62,1010.29 5339.44,1010.61C5340.27,1010.93 5340.67,1011.86 5340.35,1012.69C5337.35,1020.38 5332.9,1027.29 5327.13,1033.2C5326.82,1033.53 5326.4,1033.69 5325.98,1033.69ZM5318.97,1030.17C5318.54,1030.17 5318.11,1030 5317.8,1029.66C5317.19,1029.02 5317.23,1028 5317.87,1027.39C5329.8,1016.24 5335.61,999.959 5333.43,983.837C5333.31,982.96 5333.92,982.152 5334.8,982.033C5335.68,981.914 5336.48,982.529 5336.6,983.407C5338.93,1000.56 5332.74,1017.88 5320.06,1029.74C5319.76,1030.03 5319.36,1030.17 5318.97,1030.17ZM5380.61,1029.21C5380.42,1029.21 5380.23,1029.17 5380.04,1029.1C5379.21,1028.79 5378.8,1027.86 5379.11,1027.03C5385.97,1009.1 5387.62,989.639 5383.89,970.732L5383.8,970.326C5382.78,965.259 5380.73,960.588 5377.71,956.442C5377.19,955.727 5377.35,954.724 5378.07,954.203C5378.78,953.681 5379.78,953.839 5380.31,954.555C5383.47,958.895 5385.65,963.762 5386.81,969.03L5386.81,969.035L5386.95,969.694C5390.91,989.324 5389.23,1009.55 5382.11,1028.18C5381.86,1028.82 5381.26,1029.21 5380.61,1029.21ZM5312.63,1025.89C5312.18,1025.89 5311.74,1025.7 5311.42,1025.34C5310.84,1024.67 5310.91,1023.65 5311.58,1023.07C5317.24,1018.17 5321.55,1011.85 5324.03,1004.79C5326.42,998.006 5327.05,990.71 5325.88,983.593L5325.87,983.595L5325.56,982.07C5324.3,975.812 5325.55,969.439 5329.08,964.122C5332.61,958.807 5338.01,955.184 5344.26,953.923C5346.44,953.484 5348.66,953.348 5350.85,953.518C5351.74,953.587 5352.4,954.358 5352.33,955.241C5352.26,956.124 5351.49,956.783 5350.61,956.715C5348.7,956.567 5346.78,956.685 5344.9,957.066C5339.48,958.158 5334.81,961.294 5331.75,965.897C5328.94,970.131 5327.8,975.139 5328.48,980.132L5328.75,981.429C5330.39,989.592 5329.81,998.038 5327.06,1005.85C5324.39,1013.44 5319.76,1020.23 5313.68,1025.5C5313.38,1025.76 5313,1025.89 5312.63,1025.89ZM5306.99,1020.92C5306.53,1020.92 5306.07,1020.72 5305.75,1020.34C5305.19,1019.65 5305.29,1018.64 5305.98,1018.08C5310.73,1014.19 5314.41,1009.11 5316.64,1003.38C5316.96,1002.56 5317.89,1002.15 5318.71,1002.47C5319.54,1002.79 5319.95,1003.72 5319.62,1004.55C5317.2,1010.78 5313.18,1016.32 5308.01,1020.56C5307.71,1020.81 5307.35,1020.92 5306.99,1020.92ZM5391.13,1020.77C5390.99,1020.77 5390.85,1020.75 5390.72,1020.72C5389.86,1020.49 5389.35,1019.61 5389.58,1018.76C5392.63,1007.34 5393.79,995.563 5393.05,983.762C5392.99,982.878 5393.66,982.116 5394.55,982.061C5395.43,982.002 5396.19,982.676 5396.25,983.56C5397.02,995.708 5395.81,1007.83 5392.68,1019.58C5392.49,1020.3 5391.84,1020.77 5391.13,1020.77ZM5302.08,1015.36C5301.61,1015.36 5301.14,1015.15 5300.83,1014.76C5300.27,1014.07 5300.38,1013.06 5301.07,1012.5C5308.98,1006.15 5312.82,996.19 5311.28,986.256L5311.02,985.003C5308.17,970.839 5313.37,956.377 5324.59,947.26C5325.28,946.702 5326.29,946.807 5326.85,947.494C5327.4,948.182 5327.3,949.191 5326.61,949.749C5316.69,957.81 5311.9,970.425 5313.91,982.96L5314.19,984.363C5316.52,995.887 5312.26,1007.63 5303.08,1015C5302.78,1015.24 5302.43,1015.36 5302.08,1015.36ZM5297.89,1009.2C5297.43,1009.2 5296.98,1009 5296.66,1008.63C5296.09,1007.96 5296.17,1006.94 5296.85,1006.37C5302.36,1001.7 5305.03,994.509 5303.95,987.419L5303.75,986.468C5303.27,984.079 5302.98,981.626 5302.87,979.178C5302.84,978.293 5303.52,977.546 5304.41,977.51C5305.29,977.475 5306.04,978.16 5306.08,979.045C5306.15,980.85 5306.34,982.658 5306.64,984.437L5306.92,985.829C5308.64,994.369 5305.58,1003.18 5298.92,1008.82C5298.62,1009.07 5298.25,1009.2 5297.89,1009.2ZM5378.75,1007.82C5378.67,1007.82 5378.58,1007.81 5378.49,1007.8C5377.62,1007.65 5377.03,1006.83 5377.17,1005.95C5379.03,994.635 5378.82,983.142 5376.53,971.794L5376.44,971.363C5374.88,964.186 5370.67,958.011 5364.54,953.938C5358.29,949.784 5350.79,948.313 5343.43,949.798C5336.07,951.281 5329.73,955.542 5325.58,961.795C5321.69,967.643 5320.15,974.58 5321.19,981.475L5321.47,982.895C5322.26,986.803 5322.44,990.769 5322.02,994.684C5321.93,995.564 5321.14,996.201 5320.26,996.106C5319.38,996.012 5318.74,995.221 5318.84,994.341C5319.16,991.277 5319.09,988.177 5318.61,985.104L5318.29,983.537C5316.64,975.338 5318.28,966.986 5322.91,960.02C5327.53,953.054 5334.6,948.307 5342.8,946.655C5351,945.001 5359.35,946.639 5366.31,951.267C5373.28,955.895 5378.02,962.959 5379.68,971.158L5379.83,971.905L5379.82,971.911C5382.05,983.397 5382.22,995.021 5380.33,1006.47C5380.2,1007.26 5379.52,1007.82 5378.75,1007.82ZM5401.39,1006.86C5401.32,1006.86 5401.26,1006.85 5401.19,1006.85C5400.31,1006.74 5399.69,1005.93 5399.8,1005.06C5401.31,992.879 5400.9,980.561 5398.56,968.424L5398.34,967.395C5394.74,949.519 5381.7,934.951 5364.32,929.376C5363.47,929.105 5363.01,928.203 5363.28,927.36C5363.55,926.516 5364.45,926.053 5365.29,926.322C5383.3,932.095 5396.92,946.936 5401.16,965.263L5401.18,965.26L5401.5,966.759C5404.08,979.569 5404.58,992.587 5402.98,1005.45C5402.88,1006.26 5402.19,1006.86 5401.39,1006.86ZM5294.38,1002.29C5293.99,1002.29 5293.6,1002.15 5293.29,1001.86C5292.65,1001.26 5292.61,1000.25 5293.21,999.598C5295.98,996.604 5297.23,992.485 5296.6,988.481L5296.48,987.933C5293.66,973.909 5296.46,959.624 5304.38,947.709C5312.29,935.794 5324.38,927.675 5338.4,924.847C5344.29,923.659 5350.27,923.462 5356.16,924.259C5357.04,924.378 5357.65,925.185 5357.53,926.063C5357.42,926.94 5356.61,927.556 5355.73,927.437C5350.19,926.687 5344.57,926.873 5339.03,927.991C5325.85,930.649 5314.49,938.282 5307.05,949.483C5299.77,960.431 5297.09,973.509 5299.45,986.404L5299.65,987.296C5300.69,992.478 5299.16,997.892 5295.56,1001.78C5295.24,1002.12 5294.81,1002.29 5294.38,1002.29ZM5289.31,989.707C5289.27,989.61 5289.24,989.507 5289.22,989.399C5287.83,982.522 5287.63,975.545 5288.62,968.664C5289.57,962.013 5291.62,955.596 5294.69,949.589C5295.1,948.801 5296.06,948.489 5296.85,948.893C5297.64,949.296 5297.95,950.263 5297.55,951.051C5294.63,956.741 5292.7,962.821 5291.79,969.121C5290.87,975.536 5291.04,982.041 5292.3,988.459C5292.34,988.554 5292.37,988.655 5292.39,988.76C5292.55,989.561 5292.74,990.391 5292.94,991.226C5293.15,992.086 5292.63,992.955 5291.77,993.166C5291.64,993.198 5291.51,993.213 5291.39,993.213C5290.66,993.213 5290.01,992.724 5289.83,991.993C5289.64,991.222 5289.47,990.455 5289.31,989.707ZM5365.18,992.01L5365.18,992.01C5364.29,992.01 5363.58,991.295 5363.57,990.411C5363.56,985.185 5363.02,979.909 5361.98,974.728L5361.86,974.108C5361.05,970.895 5359.11,968.136 5356.33,966.29C5353.38,964.328 5349.84,963.634 5346.36,964.335C5341.15,965.386 5337.07,969.431 5335.99,974.639C5335.81,975.506 5334.96,976.062 5334.09,975.881C5333.22,975.7 5332.67,974.85 5332.85,973.984C5334.2,967.518 5339.25,962.497 5345.73,961.192C5350.04,960.321 5354.44,961.183 5358.11,963.62C5361.77,966.056 5364.27,969.774 5365.14,974.089L5365.4,975.374L5365.37,975.384C5366.3,980.355 5366.77,985.401 5366.78,990.403C5366.78,991.288 5366.07,992.008 5365.18,992.01ZM5405.71,966.238C5405.66,966.141 5405.63,966.038 5405.61,965.93C5402.67,951.346 5394.35,938.61 5382.18,930.067C5381.45,929.558 5381.28,928.559 5381.78,927.834C5382.29,927.109 5383.29,926.934 5384.02,927.443C5396.78,936.397 5405.53,949.715 5408.69,964.973C5408.73,965.073 5408.76,965.179 5408.79,965.289C5409.67,969.664 5410.07,974.133 5409.99,978.573C5409.97,979.447 5409.26,980.145 5408.39,980.145C5408.38,980.145 5408.37,980.145 5408.36,980.145C5407.47,980.128 5406.77,979.397 5406.78,978.511C5406.86,974.412 5406.5,970.284 5405.71,966.238ZM5393.66,975.914C5392.88,975.914 5392.19,975.342 5392.08,974.547C5391.83,972.898 5391.55,971.248 5391.23,969.63L5391.07,968.861C5388.81,957.618 5382.3,947.932 5372.75,941.585C5363.19,935.239 5351.74,932.993 5340.5,935.26C5331.85,937.003 5324.07,941.281 5317.99,947.63C5312.05,953.837 5308.14,961.574 5306.67,970.003C5306.52,970.876 5305.69,971.46 5304.82,971.308C5303.95,971.157 5303.36,970.327 5303.51,969.454C5305.09,960.395 5309.29,952.082 5315.68,945.413C5322.21,938.588 5330.57,933.99 5339.86,932.116C5351.95,929.68 5364.26,932.095 5374.52,938.915C5384.46,945.516 5391.33,955.481 5393.97,967.071L5393.98,967.072L5394.23,968.228C5394.61,970.143 5394.95,972.11 5395.25,974.075C5395.38,974.95 5394.77,975.766 5393.9,975.896C5393.82,975.908 5393.74,975.914 5393.66,975.914ZM5372.52,950.242C5372.17,950.242 5371.81,950.123 5371.51,949.879C5363.22,943.093 5352.45,940.414 5341.96,942.528C5339.26,943.072 5336.64,943.924 5334.16,945.062C5333.35,945.431 5332.4,945.077 5332.03,944.273C5331.66,943.468 5332.02,942.516 5332.82,942.147C5335.53,940.907 5338.39,939.977 5341.33,939.385C5352.77,937.079 5364.51,940.001 5373.54,947.398C5374.23,947.959 5374.33,948.97 5373.76,949.655C5373.45,950.041 5372.99,950.242 5372.52,950.242ZM5301.04,943.939C5300.71,943.939 5300.38,943.839 5300.09,943.631C5299.38,943.109 5299.22,942.106 5299.74,941.391C5308.74,929.055 5321.95,920.598 5336.93,917.578C5350.23,914.897 5363.67,916.631 5375.81,922.591C5376.61,922.981 5376.94,923.942 5376.55,924.737C5376.16,925.531 5375.2,925.859 5374.4,925.469C5362.9,919.824 5350.16,918.182 5337.57,920.721C5323.37,923.582 5310.86,931.594 5302.33,943.281C5302.02,943.711 5301.53,943.939 5301.04,943.939Z" style="fill:rgb(193,193,193);"/>
                </g>
            </g>
        </g>
    </g>
</svg>
